<svg xmlns="http://www.w3.org/2000/svg" width="67.772" height="24.117" viewBox="0 0 67.772 24.117">
  <g id="Grupo_6676" data-name="Grupo 6676" transform="translate(-2662.008 -169.041)">
    <g id="Grupo_6665" data-name="Grupo 6665" transform="translate(2699.635 169.041)">
      <circle id="Elipse_1507" data-name="Elipse 1507" cx="1.206" cy="1.206" r="1.206" fill="#fcf9f9"/>
      <circle id="Elipse_1508" data-name="Elipse 1508" cx="1.206" cy="1.206" r="1.206" transform="translate(2.412 21.705)" fill="#fcf9f9"/>
      <circle id="Elipse_1509" data-name="Elipse 1509" cx="1.206" cy="1.206" r="1.206" transform="translate(6.029)" fill="#fcf9f9"/>
      <circle id="Elipse_1510" data-name="Elipse 1510" cx="1.206" cy="1.206" r="1.206" transform="translate(6.029 3.618)" fill="#fcf9f9"/>
      <circle id="Elipse_1511" data-name="Elipse 1511" cx="1.206" cy="1.206" r="1.206" transform="translate(6.029 18.088)" fill="#fcf9f9"/>
      <circle id="Elipse_1512" data-name="Elipse 1512" cx="1.206" cy="1.206" r="1.206" transform="translate(6.029 21.705)" fill="#fcf9f9"/>
      <circle id="Elipse_1513" data-name="Elipse 1513" cx="1.206" cy="1.206" r="1.206" transform="translate(9.647)" fill="#fcf9f9"/>
      <circle id="Elipse_1514" data-name="Elipse 1514" cx="1.206" cy="1.206" r="1.206" transform="translate(9.647 3.618)" fill="#fcf9f9"/>
      <circle id="Elipse_1515" data-name="Elipse 1515" cx="1.206" cy="1.206" r="1.206" transform="translate(9.647 7.235)" fill="#fcf9f9"/>
      <circle id="Elipse_1516" data-name="Elipse 1516" cx="1.206" cy="1.206" r="1.206" transform="translate(9.647 14.47)" fill="#fcf9f9"/>
      <circle id="Elipse_1517" data-name="Elipse 1517" cx="1.206" cy="1.206" r="1.206" transform="translate(9.647 18.088)" fill="#fcf9f9"/>
      <circle id="Elipse_1518" data-name="Elipse 1518" cx="1.206" cy="1.206" r="1.206" transform="translate(9.647 21.705)" fill="#fcf9f9"/>
      <circle id="Elipse_1519" data-name="Elipse 1519" cx="1.206" cy="1.206" r="1.206" transform="translate(13.264)" fill="#fcf9f9"/>
      <circle id="Elipse_1520" data-name="Elipse 1520" cx="1.206" cy="1.206" r="1.206" transform="translate(13.264 3.618)" fill="#fcf9f9"/>
      <circle id="Elipse_1521" data-name="Elipse 1521" cx="1.206" cy="1.206" r="1.206" transform="translate(13.264 7.235)" fill="#fcf9f9"/>
      <circle id="Elipse_1522" data-name="Elipse 1522" cx="1.206" cy="1.206" r="1.206" transform="translate(13.264 10.853)" fill="#fcf9f9"/>
      <circle id="Elipse_1523" data-name="Elipse 1523" cx="1.206" cy="1.206" r="1.206" transform="translate(13.264 14.47)" fill="#fcf9f9"/>
      <circle id="Elipse_1524" data-name="Elipse 1524" cx="1.206" cy="1.206" r="1.206" transform="translate(13.264 18.088)" fill="#fcf9f9"/>
      <circle id="Elipse_1525" data-name="Elipse 1525" cx="1.206" cy="1.206" r="1.206" transform="translate(13.264 21.705)" fill="#fcf9f9"/>
      <circle id="Elipse_1526" data-name="Elipse 1526" cx="1.206" cy="1.206" r="1.206" transform="translate(16.882)" fill="#fcf9f9"/>
      <circle id="Elipse_1527" data-name="Elipse 1527" cx="1.206" cy="1.206" r="1.206" transform="translate(16.882 3.618)" fill="#fcf9f9"/>
      <circle id="Elipse_1528" data-name="Elipse 1528" cx="1.206" cy="1.206" r="1.206" transform="translate(16.882 7.235)" fill="#fcf9f9"/>
      <circle id="Elipse_1529" data-name="Elipse 1529" cx="1.206" cy="1.206" r="1.206" transform="translate(16.882 10.853)" fill="#fcf9f9"/>
      <circle id="Elipse_1530" data-name="Elipse 1530" cx="1.206" cy="1.206" r="1.206" transform="translate(16.882 14.47)" fill="#fcf9f9"/>
      <circle id="Elipse_1531" data-name="Elipse 1531" cx="1.206" cy="1.206" r="1.206" transform="translate(16.882 18.088)" fill="#fcf9f9"/>
      <circle id="Elipse_1532" data-name="Elipse 1532" cx="1.206" cy="1.206" r="1.206" transform="translate(16.882 21.705)" fill="#fcf9f9"/>
      <circle id="Elipse_1533" data-name="Elipse 1533" cx="1.206" cy="1.206" r="1.206" transform="translate(20.499 3.618)" fill="#fcf9f9"/>
      <circle id="Elipse_1534" data-name="Elipse 1534" cx="1.206" cy="1.206" r="1.206" transform="translate(20.499 7.235)" fill="#fcf9f9"/>
      <circle id="Elipse_1535" data-name="Elipse 1535" cx="1.206" cy="1.206" r="1.206" transform="translate(20.499 10.853)" fill="#fcf9f9"/>
      <circle id="Elipse_1536" data-name="Elipse 1536" cx="1.206" cy="1.206" r="1.206" transform="translate(20.499 14.47)" fill="#fcf9f9"/>
      <circle id="Elipse_1537" data-name="Elipse 1537" cx="1.206" cy="1.206" r="1.206" transform="translate(20.499 18.088)" fill="#fcf9f9"/>
      <circle id="Elipse_1538" data-name="Elipse 1538" cx="1.206" cy="1.206" r="1.206" transform="translate(24.117 7.235)" fill="#fcf9f9"/>
      <circle id="Elipse_1539" data-name="Elipse 1539" cx="1.206" cy="1.206" r="1.206" transform="translate(23.939 11.061) rotate(-9.217)" fill="#fcf9f9"/>
      <circle id="Elipse_1540" data-name="Elipse 1540" cx="1.206" cy="1.206" r="1.206" transform="translate(24.117 14.47)" fill="#fcf9f9"/>
      <circle id="Elipse_1541" data-name="Elipse 1541" cx="1.206" cy="1.206" r="1.206" transform="translate(27.734 10.853)" fill="#fcf9f9"/>
    </g>
    <g id="Grupo_6667" data-name="Grupo 6667" transform="translate(2662.008 169.096)">
      <path id="Caminho_25687" data-name="Caminho 25687" d="M2702.712,178.908l-1.427-.21c-2.732-.408-4.993-.867-4.993-2.364s1.795-2.457,4.572-2.457a14.47,14.47,0,0,1,6.455,1.585l.028.013a.943.943,0,0,0,1.235-.274c.389-.526.742-1.1,1.082-1.649.171-.277.341-.553.516-.824a1.083,1.083,0,0,0,.2-.85,1.017,1.017,0,0,0-.506-.615,19.578,19.578,0,0,0-9.117-2.095,13.374,13.374,0,0,0-7.218,1.868,6.468,6.468,0,0,0-3.144,5.591c0,3.791,2.6,6,7.954,6.759l1.608.227c3.331.474,5.136,1,5.136,2.4,0,1.48-1.888,2.474-4.7,2.474a14.389,14.389,0,0,1-7.275-1.983,1.02,1.02,0,0,0-1.386.17c-.353.425-1.779,2.423-1.894,2.673a.98.98,0,0,0,.375,1.259,19.8,19.8,0,0,0,10.163,2.574,13.885,13.885,0,0,0,7.371-1.86,6.635,6.635,0,0,0,3.262-5.792C2711.008,181.942,2708.216,179.717,2702.712,178.908Z" transform="translate(-2677.603 -169.167)" fill="#fcf9f9"/>
      <g id="Grupo_6666" data-name="Grupo 6666" transform="translate(0 18.052)">
        <circle id="Elipse_1542" data-name="Elipse 1542" cx="3.005" cy="3.005" r="3.005" fill="#fcf9f9"/>
      </g>
    </g>
  </g>
</svg>
